<svg xmlns="http://www.w3.org/2000/svg" version="1.1" xmlns:xlink="http://www.w3.org/1999/xlink" xmlns:svgjs="http://svgjs.dev/svgjs" width="2000" height="2000" viewBox="0 0 2000 2000"><g transform="matrix(1,0,0,1,0,0)"><svg viewBox="0 0 280 280" data-background-color="#ffffff" preserveAspectRatio="xMidYMid meet" height="2000" width="2000" xmlns="http://www.w3.org/2000/svg" xmlns:xlink="http://www.w3.org/1999/xlink"><g id="tight-bounds" transform="matrix(1,0,0,1,0,0)"><svg viewBox="0 0 280 280" height="280" width="280"><g><svg viewBox="0 0 280 280" height="280" width="280"><g><svg viewBox="0 0 280 280" height="280" width="280"><g id="textblocktransform"><svg viewBox="0 0 280 280" height="280" width="280" id="textblock"><g><svg viewBox="0 0 280 280" height="280" width="280"><g transform="matrix(1,0,0,1,65.14715033453734,31.10555569727167)"><svg viewBox="0 0 149.7056993309253 217.78888860545666" height="217.78888860545666" width="149.7056993309253"><g id="icon-0"><svg xmlns="http://www.w3.org/2000/svg" xmlns:xlink="http://www.w3.org/1999/xlink" version="1.0" x="0" y="0" viewBox="0.0003412746383539833 0 68.63442282344113 99.848" enable-background="new 0 0 68.635 99.848" xml:space="preserve" width="149.7056993309253" height="217.78888860545666" class="icon-xg-0" data-fill-palette-color="accent" id="xg-0"><path d="M46.68 64.517C74.499 19.438 27.205 0 27.205 0c12.164 10.145 16.409 44.657-5.868 45.114C5.534 45.438 8.277 28.492 9.976 24.917 8.197 27.438-3.772 48.629 1.201 70.003c4.974 21.375 35.042 29.845 35.042 29.845C30.023 81.213 41.916 72.17 46.68 64.517z" fill="#fa7328" data-fill-palette-color="accent"></path><path d="M59.161 38.038c2.465 4.582-2.596 23.759-9.987 32.491-13.705 16.23-9.383 24.461-8.313 28.29 0.169-0.4 1.947-2.261 14.586-10.921C82.771 69.223 59.161 38.038 59.161 38.038z" fill="#fa7328" data-fill-palette-color="accent"></path><path d="M40.893 98.928c-0.009-0.035-0.022-0.072-0.031-0.109C40.813 98.931 40.893 98.928 40.893 98.928z" fill="#fa7328" data-fill-palette-color="accent"></path><path d="M9.976 24.917c0.146-0.209 0.237-0.328 0.237-0.328C10.113 24.666 10.039 24.779 9.976 24.917z" fill="#fa7328" data-fill-palette-color="accent"></path></svg></g></svg></g><g id="text-0"><path d="M140.336 56.327c1.228-0.11 2.124-0.063 2.689 0.141 0.557 0.198 0.861 0.585 0.912 1.163v0l0.423 4.702c0.052 0.578-0.178 1.013-0.691 1.307-0.519 0.301-1.392 0.507-2.62 0.618v0c-1.221 0.11-2.113 0.062-2.678-0.142-0.557-0.198-0.861-0.585-0.912-1.163v0l-0.423-4.702c-0.052-0.578 0.178-1.013 0.691-1.307 0.519-0.301 1.389-0.507 2.609-0.617z" fill="#000000" data-fill-palette-color="primary"></path><path d="M0 190.6c0-1.625 1.317-2.942 2.942-2.941 1.625 0 2.942 1.317 2.942 2.941 0 1.625-1.317 2.942-2.942 2.942-1.625 0-2.942-1.317-2.942-2.942z" fill="#000000" data-fill-palette-color="primary"></path><path d="M274.116 190.6c0-1.625 1.317-2.942 2.942-2.941 1.625 0 2.942 1.317 2.942 2.941 0 1.625-1.317 2.942-2.942 2.942-1.625 0-2.942-1.317-2.942-2.942z" fill="#000000" data-fill-palette-color="primary"></path></g><g id="text-1"><path d="M5.397 222.534c0.063 0.305 0.077 0.532 0.041 0.68-0.029 0.147-0.118 0.235-0.267 0.267v0l-1.161 0.24c-0.149 0.031-0.266-0.015-0.351-0.138-0.092-0.122-0.169-0.335-0.233-0.64v0c-0.063-0.305-0.077-0.532-0.041-0.681 0.03-0.14 0.12-0.225 0.269-0.255v0l1.161-0.241c0.149-0.031 0.265 0.012 0.349 0.128 0.092 0.122 0.169 0.335 0.233 0.64z" fill="#f8fafc" data-fill-palette-color="secondary"></path></g></svg></g></svg></g></svg></g></svg></g><defs></defs></svg><rect width="280" height="280" fill="none" stroke="none" visibility="hidden"></rect></g></svg></g></svg>